<svg xmlns="http://www.w3.org/2000/svg" width="122" height="122" viewBox="0 0 122 122" fill="none">
<rect width="122" height="122" rx="20" fill="#FA4032"/>
<path d="M42.0085 62.9205V83H35.4254V37.9091H41.9205V54.6861H42.3388C43.1314 52.866 44.3423 51.4202 45.9716 50.3487C47.6009 49.2772 49.7292 48.7415 52.3565 48.7415C54.6757 48.7415 56.7012 49.2185 58.4332 50.1726C60.1799 51.1267 61.5303 52.5504 62.4844 54.4439C63.4531 56.3227 63.9375 58.6712 63.9375 61.4893V83H57.3544V62.282C57.3544 59.8014 56.7159 57.8786 55.4389 56.5135C54.1619 55.1338 52.3859 54.4439 50.1108 54.4439C48.5549 54.4439 47.1605 54.7741 45.9276 55.4347C44.7093 56.0952 43.7479 57.0639 43.0433 58.3409C42.3535 59.6032 42.0085 61.1297 42.0085 62.9205ZM67.6149 83.558C66.1269 83.558 64.9695 82.9173 64.1429 81.636C63.3162 80.3547 62.9029 78.474 62.9029 75.994C62.9029 73.638 63.2335 71.282 63.8949 68.926C64.5562 66.5287 65.4655 64.2553 66.6229 62.106C67.7802 59.9567 69.0822 58.0553 70.5289 56.402C72.0169 54.7487 73.5669 53.4467 75.1789 52.496C76.8322 51.504 78.4649 51.008 80.0769 51.008C80.8622 51.008 81.6062 51.1733 82.3089 51.504C83.0115 51.7933 83.5902 52.2687 84.0449 52.93C84.2929 53.302 84.5409 53.488 84.7889 53.488C85.0369 53.488 85.2849 53.302 85.5329 52.93C85.9875 52.2687 86.3595 51.8553 86.6489 51.69C86.9382 51.4833 87.2069 51.38 87.4549 51.38C87.9922 51.38 88.1989 51.6693 88.0749 52.248L82.5569 75.994C81.9369 78.6807 82.3502 80.024 83.7969 80.024C84.7475 80.024 85.5949 79.3833 86.3389 78.102C87.1242 76.8207 87.9095 74.8367 88.6949 72.15C88.8189 71.6953 89.0875 71.468 89.5009 71.468C89.7902 71.468 89.9762 71.592 90.0589 71.84C90.1415 72.088 90.1415 72.3773 90.0589 72.708C89.2735 76.5933 88.2195 79.3833 86.8969 81.078C85.5742 82.7313 83.9829 83.558 82.1229 83.558C80.5109 83.558 79.3535 82.876 78.6509 81.512C77.9895 80.148 77.9275 78.288 78.4649 75.932L79.2709 72.522C79.3535 72.2327 79.2915 72.0673 79.0849 72.026C78.9195 71.9847 78.7749 72.088 78.6509 72.336C76.3775 76.5107 74.3522 79.4247 72.5749 81.078C70.8389 82.7313 69.1855 83.558 67.6149 83.558ZM69.1649 80.396C70.1569 80.396 71.2522 79.7967 72.4509 78.598C73.6495 77.3993 74.8275 75.8493 75.9849 73.948C77.1835 72.0467 78.2789 70.0007 79.2709 67.81C80.2629 65.6193 81.0482 63.5113 81.6269 61.486C82.2469 59.4607 82.5569 57.7453 82.5569 56.34C82.5569 53.8187 81.6682 52.558 79.8909 52.558C78.8162 52.558 77.6795 53.054 76.4809 54.046C75.2822 54.9967 74.1249 56.2987 73.0089 57.952C71.9342 59.6053 70.9422 61.486 70.0329 63.594C69.1649 65.6607 68.4622 67.8307 67.9249 70.104C67.3875 72.336 67.1189 74.5267 67.1189 76.676C67.1189 78.1227 67.2842 79.1147 67.6149 79.652C67.9869 80.148 68.5035 80.396 69.1649 80.396Z" fill="white"/>
</svg>